<svg width="16" height="22" viewBox="0 0 16 22" fill="none" xmlns="http://www.w3.org/2000/svg">
<g clip-path="url(#clip0)">
<path d="M9.36043 1.02022C8.98934 1.07638 8.57337 1.34553 8.37885 1.65445C8.21127 1.92125 8.15441 2.15295 8.17236 2.4806C8.1963 2.95569 8.37586 3.29036 8.76191 3.5946C9.24372 3.97608 9.80633 4.05799 10.357 3.83332C11.0872 3.53376 11.4074 2.70293 11.0842 1.95402C10.9794 1.7153 10.8418 1.54446 10.6024 1.35723C10.2253 1.06234 9.8153 0.950006 9.36043 1.02022Z" fill="black"/>
<path d="M13.6308 1.26598C13.0652 1.37129 12.5415 1.71767 12.2213 2.19276C11.4043 3.40506 12.1435 4.91927 13.6248 5.06671C14.5734 5.16267 15.5161 4.60332 15.8633 3.74207C16.0877 3.18741 16.0338 2.60934 15.7166 2.0968C15.5999 1.90958 15.5371 1.84405 15.3036 1.6615C15.0074 1.4298 14.7859 1.32683 14.4388 1.26364C14.2084 1.22151 13.8612 1.22151 13.6308 1.26598Z" fill="black"/>
<path d="M5.90686 1.75986C5.26644 1.91198 4.85945 2.50409 4.9612 3.13833C5.04798 3.67661 5.40111 4.10256 5.93679 4.30851C6.16123 4.3951 6.18218 4.39978 6.46947 4.39978C6.7418 4.39978 6.78968 4.39276 6.95128 4.33191C7.59169 4.08617 7.9119 3.41449 7.69943 2.75919C7.6306 2.55324 7.43907 2.26304 7.26849 2.1156C6.89143 1.78561 6.36772 1.64752 5.90686 1.75986Z" fill="black"/>
<path d="M2.89334 3.061C2.53422 3.16632 2.29182 3.39333 2.16314 3.74204C2.09132 3.93161 2.11227 4.38798 2.20205 4.57755C2.41452 5.0386 2.76166 5.35221 3.21953 5.49029C3.4739 5.56752 3.81206 5.56518 4.0395 5.48327C4.53328 5.3054 4.82057 4.80691 4.7278 4.29437C4.6859 4.06501 4.58116 3.82162 4.44649 3.64375C4.29686 3.44482 3.99162 3.21546 3.74922 3.12185C3.57265 3.05398 3.5128 3.04228 3.2734 3.0376C3.09683 3.03292 2.96217 3.03994 2.89334 3.061Z" fill="black"/>
<path d="M0.822461 4.64788C0.562105 4.69469 0.283794 4.87723 0.146135 5.08553C-0.0992583 5.45998 -0.0304286 5.99358 0.31372 6.38676C0.810491 6.95547 1.70228 7.0327 2.15117 6.54591C2.72575 5.91869 2.24095 4.84915 1.29529 4.65724C1.10077 4.61745 0.993039 4.61511 0.822461 4.64788Z" fill="black"/>
<path d="M9.16579 4.66184C6.94529 4.75546 4.94324 5.29842 3.53971 6.18307C1.47781 7.48431 0.726673 9.45957 1.31023 12.041C1.50176 12.8788 1.86087 13.8056 2.41749 14.8962C3.42599 16.8691 4.46742 18.5284 5.3652 19.5886C6.28991 20.6816 7.19667 21.3462 8.22911 21.6832C9.09098 21.9641 10.3748 22.0788 11.1798 21.943C12.7569 21.6809 13.8702 20.7611 14.2442 19.4131C14.3011 19.2001 14.3101 19.0995 14.3101 18.6525C14.3101 18.2055 14.3011 18.1048 14.2442 17.8919C14.0946 17.3583 13.8672 16.937 13.4332 16.4104C12.4696 15.2332 12.0686 14.2877 12.2003 13.5084C12.2931 12.9724 12.5265 12.5769 13.2656 11.7157C14.0318 10.824 14.2652 10.4893 14.4717 9.98147C14.8158 9.1366 14.7889 8.1162 14.3998 7.0607C14.1754 6.45689 13.6367 5.88351 12.9065 5.47628C12.5714 5.28672 11.901 5.02694 11.4761 4.91694C10.7429 4.72971 9.86307 4.63142 9.16579 4.66184Z" fill="black"/>
</g>
<defs>
<clipPath id="clip0">
<rect width="16" height="22" fill="white"/>
</clipPath>
</defs>
</svg>
